<?xml version="1.0" encoding="utf-8"?>
<!-- Generator: Adobe Illustrator 22.1.0, SVG Export Plug-In . SVG Version: 6.00 Build 0)  -->
<svg version="1.1" id="Layer_1" xmlns="http://www.w3.org/2000/svg" xmlns:xlink="http://www.w3.org/1999/xlink" x="0px" y="0px"
	 viewBox="0 0 520 192" style="enable-background:new 0 0 520 192;" xml:space="preserve">
<style type="text/css">
	.st0{fill:url(#SVGID_1_);}
	.st1{fill:url(#SVGID_2_);}
	.st2{fill:url(#SVGID_3_);}
	.st3{fill:url(#SVGID_4_);}
	.st4{fill:#FFFFFF;}
	.st5{fill:url(#SVGID_5_);}
	.st6{fill:#1A1A1A;}
	.st7{fill:url(#SVGID_6_);}
	.st8{fill:#1E1E1E;}
	.st9{fill:url(#SVGID_7_);}
	.st10{fill:#FC8702;}
	.st11{fill:#FD6216;}
	.st12{fill:url(#SVGID_8_);}
	.st13{fill:url(#SVGID_9_);}
	.st14{fill:url(#SVGID_10_);}
	.st15{fill:url(#SVGID_11_);}
	.st16{fill:url(#SVGID_12_);}
	.st17{fill:url(#SVGID_13_);}
	.st18{fill:url(#SVGID_14_);}
	.st19{fill:url(#SVGID_15_);}
	.st20{fill:url(#SVGID_16_);}
	.st21{fill:url(#SVGID_17_);}
	.st22{fill:url(#SVGID_18_);}
	.st23{fill:url(#SVGID_19_);}
	.st24{fill:url(#SVGID_20_);}
	.st25{fill:url(#SVGID_21_);}
	.st26{fill:url(#SVGID_22_);}
	.st27{fill:url(#SVGID_23_);}
	.st28{fill:url(#SVGID_24_);}
	.st29{fill:url(#SVGID_25_);}
	.st30{fill:url(#SVGID_26_);}
	.st31{fill:url(#SVGID_27_);}
	.st32{fill:url(#SVGID_28_);stroke:url(#SVGID_29_);stroke-miterlimit:10;}
	.st33{fill:#A32121;}
	.st34{fill:url(#SVGID_30_);}
	.st35{fill:#D63636;}
	.st36{fill:url(#SVGID_31_);}
	.st37{fill:url(#SVGID_32_);}
	.st38{display:none;}
	.st39{display:inline;fill:#FFFFFF;}
</style>
<g>
	<path class="st4" d="M80.5,85.5l-4.8-3.7c-0.7-0.5-1.4-0.9-2.5-0.9h-7.3c-1.4,0-3.2,0.8-4.4,1.9l-6.8,5.9c-1.7,1.4-3.2,3.1-3.2,6.2
		v9.2c0,3.4,0.4,4.7,3.2,7l6,5.1c1.3,1.1,2.9,2.6,4,2.6h8c1.5,0,2.5-0.3,3.3-1l4.6-3.8c1.2-1,1.3-3.5,1.3-5.6V89.8
		C82,87.8,81.4,86.1,80.5,85.5z"/>
	<g>
		<path class="st4" d="M131,135.6L91.8,46.4c-2-4.5-6.5-7.4-11.4-7.4h-46C27.6,39,22,44.6,22,51.4v89.2c0,6.8,5.6,12.4,12.4,12.4
			h85.2C128.6,153,134.6,143.8,131,135.6z M92.4,110.4c0,5.6-1.5,8.5-5.7,12.1l-3.6,3.1c-2.5,2.1-5.6,3.7-8.2,3.7H64.2
			c-4.3,0-7.2-2.6-10.2-5.3l-2.4-2.3v0.7c0,3.4-1.1,7-5.2,7c-4.5,0-5.2-3.7-5.2-7.3V56c0-3.6,0.8-7.2,5.2-7.2c4.5,0,5.2,3.6,5.2,7.2
			v22l1.9-1.9c3.5-3.5,5.6-5.8,10.4-5.8h11.6c2.7,0,5.1,1.5,7.7,3.7l3.6,3.1c4.1,3.6,5.7,6.5,5.7,12.1V110.4z"/>
	</g>
	<g>
		<path class="st4" d="M362.6,88.6l-6-5.1c-2-1.7-3.8-2.6-5.1-2.6h-7.4c-1.3,0-2.6,1-3.9,2.1l-3.2,2.5c-1.6,1.3-1.6,5-1.6,8v12.8
			c0,2.9,0,6.7,1.6,8l3.2,2.5c1.3,1.1,2.6,2.1,3.9,2.1h7.4c1.3,0,3.2-0.9,5.1-2.6l6-5.1c1.5-1.3,3.1-2.6,3.1-4.6V93.2
			C365.7,91.3,364.2,90,362.6,88.6z"/>
		<path class="st4" d="M279.2,83.7c-2.3-2-3.9-2.8-7.2-2.8h-8.3c-3.3,0-4.9,0.9-7.2,2.8c-3.1,2.6-3.8,4-3.8,6.2v19.8
			c0,2.2,0.8,3.6,3.8,6.2c2.3,2,3.9,2.8,7.2,2.8h8.3c3.3,0,4.9-0.9,7.2-2.8c3.1-2.6,3.8-4,3.8-6.2V90
			C283.1,87.8,282.3,86.4,279.2,83.7z"/>
		<path class="st4" d="M443,82.2c-1.3-1.2-3.4-1.3-5-1.3h-8.8c-2,0-3.6,0-5.3,1.2l-3.6,2.6c-1.3,1-2.2,1.7-2.2,4.8v7.4h30.3v-6.3
			c0-2,0.1-3.6-1.3-4.9L443,82.2z"/>
		<path class="st4" d="M497.4,136.6l-29.8-89.2c-1.7-5.1-6.5-8.5-11.8-8.5h-332c-9,0-15,9.2-11.4,17.5l39.2,89.2
			c2,4.5,6.5,7.4,11.4,7.4h322.5C494.1,153,500.1,144.7,497.4,136.6z M172.9,110.8l6.3,5.3c1.9,1.5,3.9,2.6,6,2.6h18.4
			c3.1,0,7.2,0.7,7.2,5.2c0,4.5-3.7,5.2-7.2,5.2h-16.6c-6.1,0-8.6-0.1-13.5-4.1l-7.7-6.4c-5-4.1-6.2-7.3-6.2-13.8V94.8
			c0-6.4,1.2-9.6,6.2-13.8l7.7-6.4c4.9-4,7.4-4.1,13.5-4.1h16.6c3.5,0,7.2,0.8,7.2,5.2c0,4.6-4.1,5.2-7.2,5.2h-18.4
			c-2.1,0-4.1,1.1-6,2.6l-6.3,5.3c-1.6,1.3-2.8,2.4-2.8,4.5v13C170.1,108.4,171.3,109.5,172.9,110.8z M293.5,109.7
			c0,6.9-1.7,9.5-7.2,14.1c-5.5,4.6-7.6,5.5-14.3,5.5h-8.3c-6.7,0-8.8-0.9-14.3-5.5c-5.5-4.6-7.2-7.2-7.2-14.1V90
			c0-7,1.4-9.4,6.7-13.6c5.1-4.3,7.5-5.9,14.8-5.9h8.3c7.3,0,9.7,1.6,14.8,5.9c5.2,4.3,6.7,6.7,6.7,13.6V109.7z M376.2,121.9
			c0,3.6-0.8,7.3-5.2,7.3c-4.1,0-5.2-3.5-5.2-7v-0.7l-2.3,2.3c-3.3,3.1-6.9,5.3-10,5.3h-10.2c-3.5,0-7.4-2.4-9-3.7l-3.6-3.1
			c-4.4-3.7-5.8-6.5-5.8-12.1V89.3c0-5.6,1.4-8.4,5.8-12.1l3.6-3.1c3.3-2.8,5.7-3.7,10-3.7h9.3c3.6,0,6.5,2,10.4,5.8l1.7,1.9V56
			c0-3.6,0.8-7.2,5.2-7.2s5.2,3.6,5.2,7.2V121.9z M458.8,99.7c0,6-1,7.7-7.2,7.7H418v3.5c0,1,0.8,2.3,1.5,3.1l2.6,2.8
			c1.4,1.5,3.5,2,7,2h22.5c3.5,0,7.2,0.8,7.2,5.2c0,4.6-4.1,5.2-7.2,5.2h-24.9c-4.4,0-6.1,0-9.4-2.8l-4.5-3.9
			c-4.1-3.7-5.3-6.1-5.3-11.8V90.5c0-5.6,0.8-8.8,5.1-12.6l3.7-3.2c4.9-4.3,7.3-4.4,11.6-4.4h9.6c5.1,0,7.5,0.5,11.6,3.8l4.3,3.4
			c4.8,3.8,5.5,7.9,5.5,13.6V99.7z"/>
	</g>
</g>
</svg>
